# xmcd
#
# Track frame offsets:
#	150
#	39000
#	62325
#	81450
#	115425
#	164550
#	175875
#	193350
#	205275
#	212925
#	229575
#	251775
#	268800
#	311325
#
# Disc length: 4352 seconds
#
# Revision: 1
# Processed by: cddbd v1.5.1PL0 Copyright (c) Steve Scherf et al.
# Submitted via: CDex 1.50Beta5
#
DISCID=ce10fe0e
DTITLE=木下牧子 - 邪宗門秘曲
DYEAR=1900
DGENRE=Classical
TTITLE0=卵のかげ
TTITLE1=青い太陽
TTITLE2=暗号
TTITLE3=石の思想
TTITLE4=邪宗門秘曲
TTITLE5=ELEGIA
TTITLE6=奇妙な肖像
TTITLE7=春のガラス
TTITLE8=秋のスピイド
TTITLE9=ソルシスコ的夜
TTITLE10=あけぼの
TTITLE11=春は来ぬ
TTITLE12=仏の見たる幻想の世界
TTITLE13=鴎
EXTD=
EXTT0=
EXTT1=
EXTT2=
EXTT3=
EXTT4=
EXTT5=
EXTT6=
EXTT7=
EXTT8=
EXTT9=
EXTT10=
EXTT11=
EXTT12=
EXTT13=
PLAYORDER=
